<svg width="60" height="20" viewBox="0 0 60 20" fill="none" xmlns="http://www.w3.org/2000/svg">
<g clip-path="url(#clip0_5183_44)">
<path d="M10.9137 13.7456L13.9425 6.35749H13.1693L7.3738 19.9936H0L7.96166 2.69887C8.71566 1.05636 10.345 0.00644122 12.1406 0.00644122H19.0415L17.393 3.86473H18.0575L19.7189 0H27.0415V19.9936H21.1693V6.35105H20.4153L17.6997 13.7649L10.9137 13.7456Z" fill="#FFDA00"/>
<path d="M27.4888 0.00646973H40.2748L37.508 6.3704H33.8786V6.92434H37.8658L40.9457 0.00646973H47.7316L40.5879 16.7408C39.7444 18.7118 37.8211 19.9871 35.6933 19.9871C35.1374 19.9871 34.5495 19.9871 33.9617 19.9936C31.3163 20.0129 27.4888 19.9936 27.4888 19.9936V13.7649H34.9713L35.1885 13.153H32.3706C29.6741 13.153 27.4888 10.9501 27.4888 8.23191V0.00646973Z" fill="#FFDA00"/>
<path d="M60 0V9.38486L55.6933 9.40419L50.6965 9.42351L51.2524 6.9372L55.6869 6.91143V6.40902H51.3738L50.6965 9.41707L49.5335 13.7456H55.6933V13.1594L49.6869 13.1659L50.4472 10.3382L55.9233 10.3188L60 10.3317V19.9936H39.7188L46.8306 3.1562C47.6421 1.24316 49.5016 0 51.5655 0C55.4249 0 56.8945 0 60 0Z" fill="#FFDA00"/>
</g>
<defs>
<clipPath id="clip0_5183_44">
<rect width="60" height="20" fill="white"/>
</clipPath>
</defs>
</svg>
