<svg width="16" height="16" fill="none" xmlns="http://www.w3.org/2000/svg"><path d="M15.723 4.44c-.195-.85-.891-1.479-1.73-1.572-1.983-.222-3.992-.223-5.99-.222-2 0-4.008 0-5.992.222-.838.094-1.533.721-1.73 1.572C.004 5.652 0 6.975 0 8.222c0 1.248 0 2.57.279 3.782.195.851.891 1.479 1.729 1.573 1.984.221 3.992.222 5.991.221 2 .001 4.008 0 5.992-.221.837-.094 1.533-.722 1.73-1.573.278-1.211.279-2.534.279-3.782 0-1.247.002-2.57-.277-3.782zm-9.788 6.266V5.414l5.087 2.654-5.087 2.638z" fill="#707683"/></svg>